<?xml version="1.0" encoding="utf-8"?>
<!-- Generator: Adobe Illustrator 23.0.4, SVG Export Plug-In . SVG Version: 6.00 Build 0)  -->
<svg version="1.1" id="Layer_1" xmlns="http://www.w3.org/2000/svg" xmlns:xlink="http://www.w3.org/1999/xlink" x="0px" y="0px"
	 width="72px" height="72px" viewBox="0 0 72 72" style="enable-background:new 0 0 72 72;" xml:space="preserve">
<style type="text/css">
	.st0{fill-rule:evenodd;clip-rule:evenodd;fill:#4460A0;}
	.st1{fill-rule:evenodd;clip-rule:evenodd;fill:#FFFFFF;}
</style>
<path class="st0" d="M36,72L36,72c19.9,0,36-16.1,36-36l0,0C72,16.1,55.9,0,36,0l0,0C16.1,0,0,16.1,0,36l0,0C0,55.9,16.1,72,36,72z"
	/>
<path class="st1" d="M60.5,13.4v9.3l-5.5,0c-4.3,0-5.2,2.1-5.2,5.1v6.7h10.3l-1.3,10.4h-9V72H39V44.9h-9V34.5h9v-7.7
	C39,17.9,44.4,13,52.4,13C56.2,13,59.5,13.3,60.5,13.4z"/>
</svg>
